<?xml version="1.0" encoding="UTF-8" standalone="no"?>
<svg
   xmlns:dc="http://purl.org/dc/elements/1.1/"
   xmlns:cc="http://creativecommons.org/ns#"
   xmlns:rdf="http://www.w3.org/1999/02/22-rdf-syntax-ns#"
   xmlns:svg="http://www.w3.org/2000/svg"
   xmlns="http://www.w3.org/2000/svg"
   viewBox="0 0 677.08655 395.26038"
   height="395.26038"
   width="677.08655"
   id="svg80"
   version="1.1">
  <metadata
     id="metadata86">
    <rdf:RDF>
      <cc:Work
         rdf:about="">
        <dc:format>image/svg+xml</dc:format>
        <dc:type
           rdf:resource="http://purl.org/dc/dcmitype/StillImage" />
        <dc:title></dc:title>
      </cc:Work>
    </rdf:RDF>
  </metadata>
  <defs
     id="defs84" />
  <path
     id="path90"
     d="m 294.93549,390.55117 c -4.5308,-2.94069 -8.8808,-6.54813 -9.66666,-8.01653 -0.78586,-1.4684 -1.41159,-6.45927 -1.39051,-11.09081 0.038,-8.35236 0.14396,-8.58574 13,-28.63446 8.37837,-13.0659 18.78907,-26.88253 29.44169,-39.07372 15.2079,-17.40438 16.76415,-18.79785 20.16063,-18.05185 3.57816,0.78589 4.41402,-0.34699 30.03074,-40.70206 23.18981,-36.53186 26.68866,-41.41959 29.1727,-40.75288 1.55242,0.41666 4.92258,0.77496 7.48924,0.7962 9.91819,0.0821 10.15295,-0.47176 -19.81745,46.75489 -25.44369,40.09357 -27.97389,44.59681 -26.17449,46.58512 1.09557,1.2106 1.99194,2.79192 1.99194,3.51406 0,0.72214 -4.38821,11.4749 -9.75158,23.89502 -6.80988,15.76984 -13.5724,28.6153 -22.41739,42.58202 -11.19808,17.68236 -13.36911,20.35398 -18.73482,23.05458 -10.58636,5.3282 -13.99376,5.20268 -23.33404,-0.85958 z m 73.27201,-52.31614 c 1.05266,-2.50004 4.76556,-11.0791 8.25086,-19.06458 5.05344,-11.57836 6.18124,-15.47846 5.56826,-19.25588 -0.71042,-4.3777 1.10816,-7.69949 23.98669,-43.81427 13.61547,-21.4926 24.85011,-39.07746 24.96587,-39.07746 0.11573,0 8.00681,-0.90228 17.53565,-2.00505 51.60488,-5.97229 87.68814,-15.42651 119.99183,-31.43919 19.08238,-9.45898 32.48204,-18.88337 58.6103,-41.22242 20.63179,-17.6397 35.46497,-28.44482 36.95536,-26.91984 1.56571,1.60204 7.61891,24.4494 9.78156,36.91984 14.96575,86.29616 -22.4332,146.76995 -103.84939,167.92366 -35.821,9.30708 -119.05843,19.32925 -179.27105,21.58508 l -24.43988,0.91561 z m -114.36751,1.87688 C 189.01302,334.48819 127.69973,325.78555 95.173323,317.5912 55.224849,307.52701 28.180168,287.34175 13.129201,256.35618 2.8364554,235.1664 -1.0764527,214.28422 0.24939935,187.62002 0.95471835,173.43536 5.3288194,146.89074 7.6420094,142.7573 c 0.7242454,-1.29416 6.8814156,1.76004 23.5890196,11.70108 49.167846,29.25492 85.013111,42.98982 137.109431,52.53652 44.77298,8.20469 85.23221,11.47956 154.98181,12.54462 l 53.48228,0.81666 -16.14895,25.51886 c -14.60949,23.0862 -16.61044,25.66063 -20.9901,27.00594 -6.3699,1.95664 -35.81662,35.17786 -48.28591,54.47519 l -8.83095,13.66667 -11.68765,-0.22413 c -6.42822,-0.12328 -14.08767,-0.43235 -17.021,-0.6868 z M 306.28131,206.4276 c -16.62394,-0.40596 -30.64102,-1.15517 -31.14907,-1.66494 -0.78768,-0.79035 19.21732,-66.10834 25.60771,-83.61127 4.96586,-13.60129 18.61758,-22.35961 32.84181,-21.0698 11.33306,1.02764 18.25431,5.83223 29.23086,20.29141 25.45526,33.53171 36.63169,39.24788 76.82737,39.29336 l 20.46667,0.0231 4.53333,4.53333 c 3.95227,3.95227 4.53334,5.39182 4.53334,11.23103 0,5.22203 -0.74404,7.58195 -3.37698,10.711 -5.40049,6.41813 -10.2706,7.29897 -35.84281,6.48276 -32.91688,-1.05063 -46.60288,-5.44703 -65.64095,-21.08605 l -9.52741,-7.82639 -7.13926,21.64383 c -4.9418,14.98186 -7.75486,21.66581 -9.13927,21.71525 -1.1,0.0393 -15.6014,-0.26072 -32.22534,-0.66667 z m 133.55868,-60.69837 c 0,-0.34483 6.34923,-10.59793 14.10938,-22.78469 l 14.10938,-22.15774 -2.00661,-4.1432 c -2.63912,-5.4492 -0.32744,-11.70888 5.01956,-13.5922 3.11983,-1.09886 4.99831,-0.59813 11.90304,3.17292 11.28376,6.1627 14.19859,9.0691 14.19859,14.15763 0,5.2816 -4.18075,9.30756 -9.66544,9.30756 -3.76027,0 -4.87863,1.31897 -15.52668,18.3118 l -11.47455,18.3118 -10.33333,0.0215 c -5.68334,0.012 -10.33334,-0.2606 -10.33334,-0.60542 z m -36.68643,-3.84612 c -4.55097,-2.11927 -10.1932,-6.86181 -17.66666,-14.84963 -6.03914,-6.45477 -10.98024,-12.16948 -10.98024,-12.69936 0,-0.52988 7.95,-1.29178 17.66666,-1.69312 14.74334,-0.60894 21.08642,-1.61194 38.33334,-6.06141 11.36667,-2.93244 20.83745,-5.16155 21.04619,-4.95359 0.20874,0.20796 -5.35928,9.37812 -12.37339,20.37812 l -12.75292,20 -7.51566,1.50936 c -9.36481,1.88072 -7.88972,2.03335 -15.75732,-1.63037 z M 328.01564,88.95782 C 308.11991,84.91646 293.6184,68.219807 292.14736,47.660017 290.57948,25.746751 304.69908,6.9600611 326.82319,1.5224811 c 7.46098,-1.83374004 10.27312,-1.94881004 16.59557,-0.67908004 15.6879,3.15058004 27.25654,11.87568994 33.55275,25.30559994 2.95596,6.305097 3.53515,9.397321 3.53515,18.873846 0,9.51447 -0.56564,12.51024 -3.52452,18.66666 -9.04178,18.812813 -29.29496,29.264123 -48.9665,25.268313 z"
     style="fill:#000000;stroke-width:1.33333337" />
</svg>
