<svg
   xmlns="http://www.w3.org/2000/svg"
   viewBox="0 0 83.274841 83.059502"
   height="83.059502"
   width="83.274841"
   version="1.1"
>
  <path
    d="m 31.084995,82.016123 c -2.355933,-3.220346 0.261472,-7.226591 0.556313,-10.702748 1.90187,-7.945538 4.460475,-15.773552 5.359659,-23.925747 -3.647346,-1.683612 -6.723404,3.602778 -10.036812,4.972988 C 21.787048,56.216494 16.75564,60.320595 12.306204,65.008411 11.886466,68.022089 12.883111,74.547828 7.7256,70.802205 4.590934,68.382628 0.214827,65.614014 0,61.288644 0.671361,56.360535 5.295626,53.350209 8.357827,49.852661 22.711206,36.863043 37.623103,24.494728 52.561931,12.184554 57.919264,8.1163512 62.801118,3.1145022 69.103118,0.52342017 76.000635,-1.9272568 84.599325,4.6189052 83.103455,12.015484 c -2.10316,3.276081 -6.79027,-0.301273 -9.718751,2.109936 -6.840795,3.582298 -9.923177,11.349323 -11.682007,18.45884 -1.075909,2.990699 -1.296064,7.208505 -4.908028,8.264946 -5.819519,1.67354 -9.779067,9.718627 -5.422939,14.710628 3.692789,4.096713 6.407917,9.11254 5.71729,14.800067 -0.434224,3.32411 1.7708,11.869252 -3.939425,10.546612 -3.219928,-1.728096 -2.16591,-6.068735 -3.180045,-9.070661 -0.726989,-3.67932 -1.395354,-7.95959 -4.383239,-10.499409 -4.166131,-1.48659 -4.401817,4.680234 -5.412931,7.332507 -1.43165,4.692773 -2.263658,9.781019 -5.00963,13.912153 -1.233878,0.94176 -3.016188,0.35423 -4.078755,-0.56498 z M 54.986416,32.430242 c -2.130941,-4.205169 -4.420862,5.074297 -0.496076,1.345901 0.255356,-0.409039 0.410598,-0.873572 0.496076,-1.345901 z"
  />
</svg>
